<?xml version="1.0" encoding="UTF-8"?>
<svg width="32" height="32" viewBox="0 0 42 42" fill="none" xmlns="http://www.w3.org/2000/svg">
    <path fill-rule="evenodd" clip-rule="evenodd" d="M8.97672 5.90683C6.42688 7.30034 5.3301 9.02625 5.13835 10.4832C5.06645 11.0296 5.26839 11.6782 5.69114 12.3931C6.1056 13.094 6.65204 13.7268 7.08802 14.2233C7.4409 14.6251 7.41513 15.2335 7.02953 15.6041C4.44922 18.0839 3.75 21.5772 3.75 27.7193C3.75 30.7437 4.07685 33.5512 4.74287 35.5757C5.0765 36.5899 5.47447 37.3426 5.9045 37.8294C6.31836 38.2979 6.72784 38.4882 7.15408 38.4987C7.77624 38.5141 8.46521 38.3916 9.31657 38.1637C9.82575 38.0274 10.3392 37.8696 10.9078 37.6948C11.322 37.5675 11.7655 37.4313 12.2578 37.2877C14.5307 36.6252 17.4066 35.9494 21.292 35.9689C25.1329 35.9882 28.0902 36.4618 30.3879 36.9435C31.122 37.0974 31.806 37.2561 32.4153 37.3975C32.7423 37.4734 33.0478 37.5443 33.328 37.6068C34.1626 37.7929 34.7933 37.9093 35.3026 37.9332C36.2306 37.9767 36.8829 37.6789 37.3514 37.0797C37.8601 36.4292 38.2424 35.3052 38.2959 33.5408C38.352 31.6899 38.3887 27.9033 38.0606 24.2982C37.8963 22.4931 37.6433 20.7674 37.268 19.3655C36.878 17.909 36.4075 17.0092 35.9497 16.6271C35.6815 16.4032 35.5495 16.0555 35.6017 15.71C35.6539 15.3645 35.8827 15.0713 36.2051 14.9366C37.4066 14.4349 37.8667 13.8219 37.8429 13.0647C37.7809 11.0954 36.4022 8.72169 33.5458 6.79804C30.7148 4.89156 26.5182 3.5 21.0983 3.5C15.4605 3.5 11.5251 4.51413 8.97672 5.90683ZM8.01759 4.15182C10.9495 2.54952 15.2446 1.5 21.0983 1.5C26.8534 1.5 31.4534 2.97769 34.6629 5.13914C37.847 7.28341 39.7529 10.1763 39.8419 13.0017C39.8879 14.4637 39.1348 15.4787 38.1294 16.1651C38.5993 16.9313 38.9399 17.8771 39.1999 18.8482C39.6172 20.4067 39.8832 22.2592 40.0523 24.1169C40.391 27.8373 40.3521 31.7147 40.2949 33.6014C40.2351 35.5746 39.8057 37.1878 38.927 38.3116C38.0081 39.4869 36.6972 40.0008 35.209 39.931C34.5102 39.8982 33.7299 39.7456 32.8927 39.5589C32.5795 39.489 32.2593 39.4147 31.9254 39.3371C31.3324 39.1994 30.6959 39.0515 29.9775 38.9009C27.7731 38.4388 24.9541 37.9874 21.282 37.9689C17.6545 37.9506 14.9806 38.5773 12.8175 39.2078C12.3933 39.3315 11.9697 39.4614 11.5568 39.588C10.9479 39.7747 10.3625 39.9541 9.83375 40.0957C8.91776 40.3409 8.01161 40.5205 7.10472 40.4981C6.00196 40.4709 5.09952 39.9391 4.40556 39.1535C3.72776 38.3862 3.222 37.3527 2.84303 36.2007C2.08385 33.893 1.75 30.8487 1.75 27.7193C1.75 21.9939 2.31912 17.891 4.98984 14.8458C4.65301 14.4339 4.28521 13.9448 3.96961 13.4111C3.45691 12.5441 2.99765 11.4214 3.15545 10.2222C3.454 7.95377 5.08718 5.75331 8.01759 4.15182Z" fill="#381805"/>
    <path d="M5.13835 10.4832C5.3301 9.02625 6.42688 7.30034 8.97672 5.90683C11.5251 4.51413 15.4605 3.5 21.0983 3.5C26.5182 3.5 30.7148 4.89156 33.5458 6.79804C36.4022 8.72169 37.7809 11.0954 37.8429 13.0647C37.8667 13.8219 37.4066 14.4349 36.2051 14.9366C35.8827 15.0713 35.6539 15.3645 35.6017 15.71C35.5495 16.0555 35.6815 16.4032 35.9497 16.6271C36.4075 17.0092 36.878 17.909 37.268 19.3655C37.6433 20.7674 37.8963 22.4931 38.0606 24.2982C38.3887 27.9033 38.352 31.6899 38.2959 33.5408C38.2424 35.3052 37.8601 36.4292 37.3514 37.0797C36.8829 37.6789 36.2306 37.9767 35.3026 37.9332C34.7933 37.9093 34.1626 37.7929 33.328 37.6068C33.0478 37.5443 32.7423 37.4734 32.4153 37.3975C31.806 37.2561 31.122 37.0974 30.3879 36.9435C28.0902 36.4618 25.1329 35.9882 21.292 35.9689C17.4066 35.9494 14.5307 36.6252 12.2578 37.2877C11.7655 37.4313 11.322 37.5675 10.9078 37.6948C10.3392 37.8696 9.82575 38.0274 9.31657 38.1637C8.46521 38.3916 7.77624 38.5141 7.15408 38.4987C6.72784 38.4882 6.31836 38.2979 5.9045 37.8294C5.47447 37.3426 5.0765 36.5899 4.74287 35.5757C4.07685 33.5512 3.75 30.7437 3.75 27.7193C3.75 21.5772 4.44922 18.0839 7.02953 15.6041C7.41513 15.2335 7.4409 14.6251 7.08802 14.2233C6.65204 13.7268 6.1056 13.094 5.69114 12.3931C5.26839 11.6782 5.06645 11.0296 5.13835 10.4832Z" fill="#BA814A"/>
    <path d="M21.0412 6.5C29.1362 6.5 33.7854 10.8426 33.8947 14.4711C33.926 15.5091 33.2478 16.1804 32.2635 16.6098C34.3323 18.4137 34.305 27.1848 34.2229 30.0133C34.1408 32.8417 33.0469 34.156 31.2967 34.0702C29.5464 33.9845 26.6202 32.6132 21.1779 32.5846C15.7357 32.556 13.1376 34.5559 10.9224 34.4988C8.7072 34.4417 7.75 30.2418 7.75 25.5849C7.75 20.9279 8.24229 17.9852 10.3481 15.871C9.71982 15.1235 8.5955 13.7635 8.76189 12.4426C9.11706 9.62336 12.717 6.5 21.0412 6.5Z" fill="#D7AA6F" stroke="#B46D2B" stroke-linecap="round" stroke-linejoin="round"/>
    <path d="M12.884 23.2929C13.384 22.4596 13.2174 23.1263 13.5507 22.6263C13.884 22.1263 14.884 23.2232 14.884 23.9596C14.884 24.3278 15.0507 24.6263 14.2174 24.6263C13.384 24.6263 12.384 24.1263 12.884 23.2929Z" fill="#E2C59B"/>
    <path d="M18.9682 28.0366C18.7325 27.0938 19.0861 27.6831 18.9682 27.0938C18.8504 26.5045 20.3331 26.5731 20.8538 27.0938C21.1142 27.3541 21.4431 27.4473 20.8538 28.0366C20.2646 28.6259 19.2039 28.9794 18.9682 28.0366Z" fill="#E2C59B"/>
    <path d="M24.0923 13.7455C24.6446 13.1932 25.3112 13.7455 26.0923 13.7455C26.8733 13.7455 27.54 13.1932 28.0923 13.7455C28.6446 14.2977 29.0923 15.2455 28.0923 15.7455C27.0923 16.2455 24.7909 17.1426 24.0923 15.7455C23.743 15.0469 23.54 14.2977 24.0923 13.7455Z" fill="#E2C59B"/>
</svg>
