<svg width="157" height="87" viewBox="0 0 157 87" fill="none" xmlns="http://www.w3.org/2000/svg">
<path fill-rule="evenodd" clip-rule="evenodd" d="M63.9906 5.48243C60.8184 7.21606 59.4539 9.36322 59.2154 11.1758C59.1259 11.8555 59.3771 12.6624 59.9031 13.5518C60.4187 14.4238 61.0985 15.211 61.6409 15.8287C62.0799 16.3287 62.0479 17.0855 61.5681 17.5466C58.358 20.6317 57.4882 24.9776 57.4882 32.6188C57.4882 36.3814 57.8948 39.8741 58.7234 42.3928C59.1384 43.6544 59.6335 44.5909 60.1685 45.1965C60.6834 45.7794 61.1928 46.0161 61.7231 46.0292C62.4971 46.0483 63.3542 45.896 64.4134 45.6125C65.0468 45.4429 65.6857 45.2465 66.3931 45.0291C66.9083 44.8708 67.46 44.7012 68.0725 44.5227C70.9002 43.6984 74.478 42.8576 79.3118 42.882C84.0902 42.906 87.7693 43.4951 90.6277 44.0944C91.541 44.2858 92.3919 44.4833 93.15 44.6593C93.5568 44.7537 93.9368 44.8419 94.2855 44.9197C95.3237 45.1512 96.1084 45.296 96.742 45.3257C97.8965 45.3798 98.708 45.0093 99.2909 44.2639C99.9237 43.4546 100.399 42.0563 100.466 39.8612C100.536 37.5585 100.581 32.8477 100.173 28.3627C99.9687 26.117 99.654 23.9701 99.1871 22.2261C98.7019 20.414 98.1166 19.2946 97.5471 18.8193C97.2133 18.5408 97.0492 18.1082 97.1141 17.6784C97.1791 17.2485 97.4636 16.8837 97.8648 16.7162C99.3595 16.0919 99.932 15.3294 99.9023 14.3873C99.8252 11.9374 98.11 8.98433 94.5564 6.59116C91.0344 4.21936 85.8135 2.48815 79.0708 2.48815C72.0569 2.48815 67.1609 3.74981 63.9906 5.48243ZM62.7974 3.29906C66.4448 1.30568 71.7883 0 79.0708 0C86.2306 0 91.9532 1.83836 95.9462 4.52736C99.9074 7.195 102.279 10.794 102.389 14.309C102.447 16.1279 101.51 17.3905 100.259 18.2445C100.843 19.1977 101.267 20.3743 101.591 21.5825C102.11 23.5214 102.441 25.826 102.651 28.1371C103.072 32.7656 103.024 37.5894 102.953 39.9366C102.878 42.3914 102.344 44.3983 101.251 45.7965C100.108 47.2586 98.477 47.8979 96.6255 47.8111C95.7561 47.7703 94.7854 47.5804 93.7439 47.3482C93.3542 47.2613 92.9559 47.1687 92.5404 47.0722C91.8027 46.9009 91.0109 46.7169 90.1172 46.5296C87.3747 45.9546 83.8676 45.3931 79.2993 45.3701C74.7864 45.3474 71.4599 46.127 68.7688 46.9114C68.2411 47.0652 67.714 47.2268 67.2004 47.3843C66.4429 47.6166 65.7146 47.8399 65.0568 48.016C63.9172 48.321 62.7899 48.5445 61.6617 48.5166C60.2898 48.4827 59.1671 47.8212 58.3037 46.8438C57.4605 45.8892 56.8313 44.6035 56.3598 43.1703C55.4153 40.2994 55 36.512 55 32.6188C55 25.4959 55.708 20.3917 59.0306 16.6032C58.6116 16.0908 58.154 15.4822 57.7614 14.8183C57.1235 13.7397 56.5522 12.3429 56.7485 10.8511C57.1199 8.02898 59.1517 5.29144 62.7974 3.29906Z" fill="#381805"/>
<path d="M59.2154 11.1758C59.4539 9.36322 60.8184 7.21606 63.9906 5.48243C67.1609 3.74981 72.0569 2.48815 79.0708 2.48815C85.8135 2.48815 91.0344 4.21936 94.5564 6.59116C98.11 8.98433 99.8252 11.9374 99.9023 14.3873C99.932 15.3294 99.3595 16.0919 97.8648 16.7162C97.4636 16.8837 97.1791 17.2485 97.1141 17.6784C97.0492 18.1082 97.2133 18.5408 97.5471 18.8193C98.1166 19.2946 98.7019 20.414 99.1871 22.2261C99.654 23.9701 99.9687 26.117 100.173 28.3627C100.581 32.8477 100.536 37.5585 100.466 39.8612C100.399 42.0563 99.9237 43.4546 99.2909 44.2639C98.708 45.0093 97.8965 45.3798 96.742 45.3257C96.1084 45.296 95.3237 45.1512 94.2855 44.9197C93.9368 44.8419 93.5568 44.7537 93.15 44.6593C92.3919 44.4833 91.541 44.2858 90.6277 44.0944C87.7693 43.4951 84.0902 42.906 79.3118 42.882C74.478 42.8576 70.9002 43.6984 68.0725 44.5227C67.46 44.7012 66.9083 44.8708 66.3931 45.0291C65.6857 45.2465 65.0468 45.4429 64.4134 45.6125C63.3542 45.896 62.4971 46.0483 61.7231 46.0292C61.1928 46.0161 60.6834 45.7794 60.1685 45.1965C59.6335 44.5909 59.1384 43.6544 58.7234 42.3928C57.8948 39.8741 57.4882 36.3814 57.4882 32.6188C57.4882 24.9776 58.358 20.6317 61.5681 17.5466C62.0479 17.0855 62.0799 16.3287 61.6409 15.8287C61.0985 15.211 60.4187 14.4238 59.9031 13.5518C59.3771 12.6624 59.1259 11.8555 59.2154 11.1758Z" fill="#BA814A"/>
<path d="M78.9997 6.22037C89.0705 6.22037 94.8544 11.623 94.9905 16.137C95.0294 17.4284 94.1856 18.2635 92.9611 18.7978C95.5349 21.0419 95.5008 31.9539 95.3987 35.4727C95.2966 38.9915 93.9357 40.6265 91.7583 40.5199C89.5808 40.4132 85.9404 38.7072 79.1698 38.6716C72.3992 38.636 69.167 41.1241 66.4111 41.053C63.6553 40.9819 62.4644 35.757 62.4644 29.9634C62.4644 24.1698 63.0769 20.5089 65.6966 17.8786C64.915 16.9487 63.5163 15.2567 63.7233 13.6134C64.1652 10.1061 68.6437 6.22037 78.9997 6.22037Z" fill="#D7AA6F" stroke="#B46D2B" stroke-linecap="round" stroke-linejoin="round"/>
<path d="M68.8516 27.1121C69.4736 26.0754 69.2663 26.9047 69.681 26.2827C70.0957 25.6607 71.3398 27.0254 71.3398 27.9415C71.3398 28.3995 71.5471 28.7709 70.5104 28.7709C69.4736 28.7709 68.2296 28.1488 68.8516 27.1121Z" fill="#FFEAC4"/>
<path d="M76.4208 33.0135C76.1276 31.8406 76.5674 32.5737 76.4208 31.8406C76.2742 31.1075 78.1189 31.1928 78.7667 31.8406C79.0906 32.1645 79.4997 32.2804 78.7667 33.0135C78.0336 33.7466 76.714 34.1865 76.4208 33.0135Z" fill="#FFEAC4"/>
<path d="M82.7955 15.2343C83.4826 14.5472 84.312 15.2343 85.2837 15.2343C86.2553 15.2343 87.0847 14.5472 87.7718 15.2343C88.4589 15.9214 89.0159 17.1004 87.7718 17.7224C86.5277 18.3445 83.6646 19.4606 82.7955 17.7224C82.361 16.8533 82.1084 15.9214 82.7955 15.2343Z" fill="#FFEAC4"/>
<path d="M4.76019 67.3029C5.84019 67.3029 6.65019 67.675 7.19019 68.419C7.74219 69.151 8.01819 70.141 8.01819 71.389V85.519C7.62219 85.591 7.17219 85.639 6.66819 85.663C6.17619 85.699 5.69019 85.717 5.21019 85.717C4.74219 85.717 4.25619 85.699 3.75219 85.663C3.26019 85.639 2.80419 85.591 2.38419 85.519V67.555L2.63619 67.3029H4.76019ZM17.8642 81.019C17.8642 81.715 17.9302 82.375 18.0622 82.999C18.1942 83.611 18.4282 84.145 18.7642 84.601C18.3562 84.937 17.8462 85.225 17.2342 85.465C16.6222 85.693 15.9622 85.807 15.2542 85.807C14.1262 85.807 13.3402 85.507 12.8962 84.907C12.4522 84.307 12.2302 83.449 12.2302 82.333V74.665C12.2302 73.849 12.1222 73.249 11.9062 72.865C11.7022 72.469 11.3002 72.271 10.7002 72.271C10.3282 72.271 9.89619 72.373 9.40419 72.577C8.92419 72.781 8.43819 73.111 7.94619 73.567C7.46619 74.011 7.04019 74.611 6.66819 75.367V70.435C7.52019 69.619 8.43819 68.881 9.42219 68.221C10.4182 67.561 11.5522 67.231 12.8242 67.231C13.9282 67.231 14.8522 67.507 15.5962 68.059C16.3402 68.599 16.9042 69.349 17.2882 70.309C17.6722 71.269 17.8642 72.379 17.8642 73.639V81.019ZM21.0097 80.605C21.0097 79.153 21.3457 77.971 22.0177 77.059C22.6897 76.135 23.5657 75.451 24.6457 75.007C25.7377 74.563 26.9017 74.341 28.1377 74.341C28.6777 74.341 29.3557 74.353 30.1717 74.377C30.9997 74.401 31.7437 74.479 32.4037 74.611V78.175C31.8877 78.055 31.2637 77.989 30.5317 77.977C29.8117 77.953 29.2117 77.941 28.7317 77.941C27.9277 77.941 27.3517 78.157 27.0037 78.589C26.6557 79.009 26.4817 79.555 26.4817 80.227C26.4817 80.707 26.6257 81.109 26.9137 81.433C27.2137 81.745 27.6217 81.901 28.1377 81.901C28.8577 81.901 29.5897 81.643 30.3337 81.127C31.0777 80.611 31.7077 79.903 32.2237 79.003L33.0157 82.567C32.5477 83.119 32.0137 83.665 31.4137 84.205C30.8137 84.733 30.1117 85.171 29.3077 85.519C28.5037 85.867 27.5617 86.041 26.4817 86.041C25.2457 86.041 24.2197 85.771 23.4037 85.231C22.5997 84.679 21.9997 83.989 21.6037 83.161C21.2077 82.321 21.0097 81.469 21.0097 80.605ZM37.3357 82.909C37.2397 83.413 37.0177 83.953 36.6697 84.529C36.3217 85.105 35.9737 85.531 35.6257 85.807C34.5697 85.783 33.6937 85.543 32.9977 85.087C32.3137 84.631 31.7857 84.073 31.4137 83.413C31.0537 82.741 30.8197 82.087 30.7117 81.451V73.747C30.7117 73.003 30.5197 72.439 30.1357 72.055C29.7637 71.659 29.1697 71.461 28.3537 71.461C27.5857 71.461 26.7457 71.587 25.8337 71.839C24.9217 72.079 23.9917 72.337 23.0437 72.613C22.6477 72.157 22.3357 71.569 22.1077 70.849C21.8917 70.117 21.7537 69.403 21.6937 68.707C22.5097 68.371 23.4097 68.089 24.3937 67.861C25.3777 67.621 26.3557 67.441 27.3277 67.321C28.2997 67.189 29.1697 67.123 29.9377 67.123C30.9937 67.123 32.0077 67.321 32.9797 67.717C33.9517 68.101 34.7497 68.743 35.3737 69.643C36.0097 70.531 36.3277 71.737 36.3277 73.261V80.587C36.3277 81.103 36.4117 81.559 36.5797 81.955C36.7477 82.351 36.9997 82.669 37.3357 82.909ZM42.9047 67.3029C43.9847 67.3029 44.7947 67.675 45.3347 68.419C45.8867 69.151 46.1627 70.141 46.1627 71.389V85.519C45.7667 85.591 45.3167 85.639 44.8127 85.663C44.3207 85.699 43.8347 85.717 43.3547 85.717C42.8867 85.717 42.4007 85.699 41.8967 85.663C41.4047 85.639 40.9487 85.591 40.5287 85.519V67.555L40.7807 67.3029H42.9047ZM56.0087 81.019C56.0087 81.715 56.0747 82.375 56.2067 82.999C56.3387 83.611 56.5727 84.145 56.9087 84.601C56.5007 84.937 55.9907 85.225 55.3787 85.465C54.7667 85.693 54.1067 85.807 53.3987 85.807C52.2707 85.807 51.4847 85.507 51.0407 84.907C50.5967 84.307 50.3747 83.449 50.3747 82.333V74.665C50.3747 73.849 50.2667 73.249 50.0507 72.865C49.8467 72.469 49.4447 72.271 48.8447 72.271C48.4727 72.271 48.0407 72.373 47.5487 72.577C47.0687 72.781 46.5827 73.111 46.0907 73.567C45.6107 74.011 45.1847 74.611 44.8127 75.367V70.435C45.6647 69.619 46.5827 68.881 47.5667 68.221C48.5627 67.561 49.6967 67.231 50.9687 67.231C52.0727 67.231 52.9967 67.507 53.7407 68.059C54.4847 68.599 55.0487 69.349 55.4327 70.309C55.8167 71.269 56.0087 72.379 56.0087 73.639V81.019ZM75.7862 76.537C75.7862 78.457 75.4682 80.131 74.8322 81.559C74.1962 82.987 73.2602 84.091 72.0242 84.871C70.8002 85.651 69.2822 86.041 67.4702 86.041C65.6462 86.041 64.1162 85.651 62.8802 84.871C61.6442 84.079 60.7142 82.969 60.0902 81.541C59.4662 80.113 59.1542 78.445 59.1542 76.537C59.1542 74.605 59.4662 72.931 60.0902 71.515C60.7262 70.087 61.6622 68.983 62.8982 68.203C64.1342 67.411 65.6582 67.015 67.4702 67.015C69.2942 67.015 70.8242 67.411 72.0602 68.203C73.2962 68.995 74.2262 70.105 74.8502 71.533C75.4742 72.949 75.7862 74.617 75.7862 76.537ZM64.9322 76.537C64.9322 77.521 64.9862 78.415 65.0942 79.219C65.2142 80.023 65.4542 80.665 65.8142 81.145C66.1862 81.613 66.7382 81.847 67.4702 81.847C68.2142 81.847 68.7662 81.613 69.1262 81.145C69.4862 80.665 69.7202 80.023 69.8282 79.219C69.9482 78.415 70.0082 77.521 70.0082 76.537C70.0082 75.541 69.9482 74.641 69.8282 73.837C69.7202 73.033 69.4862 72.397 69.1262 71.929C68.7662 71.449 68.2142 71.209 67.4702 71.209C66.7382 71.209 66.1862 71.449 65.8142 71.929C65.4542 72.397 65.2142 73.033 65.0942 73.837C64.9862 74.641 64.9322 75.541 64.9322 76.537ZM79.7457 65.521C79.7457 64.261 79.9737 63.3849 80.4297 62.8929C80.8977 62.389 81.6837 62.137 82.7877 62.137H84.9837L85.2357 62.3889V79.723C85.2357 80.263 85.3557 80.683 85.5957 80.983C85.8477 81.271 86.2617 81.415 86.8377 81.415H88.8537C88.9857 81.811 89.0877 82.249 89.1597 82.729C89.2437 83.197 89.2857 83.647 89.2857 84.079C89.2857 84.283 89.2797 84.499 89.2677 84.727C89.2557 84.955 89.2197 85.165 89.1597 85.357C88.4997 85.441 87.7377 85.519 86.8737 85.591C86.0097 85.663 85.2177 85.699 84.4977 85.699C82.8657 85.699 81.6657 85.297 80.8977 84.493C80.1297 83.677 79.7457 82.411 79.7457 80.695V65.521ZM89.5017 67.519C89.6697 68.155 89.7537 68.809 89.7537 69.481C89.7537 69.817 89.7357 70.159 89.6997 70.507C89.6637 70.843 89.5977 71.179 89.5017 71.515L82.7877 71.407L76.9197 71.515C76.7637 70.879 76.6857 70.201 76.6857 69.481C76.6857 68.833 76.7637 68.179 76.9197 67.519L82.9497 67.609L89.5017 67.519ZM107.778 76.537C107.778 78.457 107.46 80.131 106.824 81.559C106.188 82.987 105.252 84.091 104.016 84.871C102.792 85.651 101.274 86.041 99.4624 86.041C97.6384 86.041 96.1084 85.651 94.8724 84.871C93.6364 84.079 92.7064 82.969 92.0824 81.541C91.4584 80.113 91.1464 78.445 91.1464 76.537C91.1464 74.605 91.4584 72.931 92.0824 71.515C92.7184 70.087 93.6544 68.983 94.8904 68.203C96.1264 67.411 97.6504 67.015 99.4624 67.015C101.286 67.015 102.816 67.411 104.052 68.203C105.288 68.995 106.218 70.105 106.842 71.533C107.466 72.949 107.778 74.617 107.778 76.537ZM96.9244 76.537C96.9244 77.521 96.9784 78.415 97.0864 79.219C97.2064 80.023 97.4464 80.665 97.8064 81.145C98.1784 81.613 98.7304 81.847 99.4624 81.847C100.206 81.847 100.758 81.613 101.118 81.145C101.478 80.665 101.712 80.023 101.82 79.219C101.94 78.415 102 77.521 102 76.537C102 75.541 101.94 74.641 101.82 73.837C101.712 73.033 101.478 72.397 101.118 71.929C100.758 71.449 100.206 71.209 99.4624 71.209C98.7304 71.209 98.1784 71.449 97.8064 71.929C97.4464 72.397 97.2064 73.033 97.0864 73.837C96.9784 74.641 96.9244 75.541 96.9244 76.537ZM109.955 80.605C109.955 79.153 110.291 77.971 110.963 77.059C111.635 76.135 112.511 75.451 113.591 75.007C114.683 74.563 115.847 74.341 117.083 74.341C117.623 74.341 118.301 74.353 119.117 74.377C119.945 74.401 120.689 74.479 121.349 74.611V78.175C120.833 78.055 120.209 77.989 119.477 77.977C118.757 77.953 118.157 77.941 117.677 77.941C116.873 77.941 116.297 78.157 115.949 78.589C115.601 79.009 115.427 79.555 115.427 80.227C115.427 80.707 115.571 81.109 115.859 81.433C116.159 81.745 116.567 81.901 117.083 81.901C117.803 81.901 118.535 81.643 119.279 81.127C120.023 80.611 120.653 79.903 121.169 79.003L121.961 82.567C121.493 83.119 120.959 83.665 120.359 84.205C119.759 84.733 119.057 85.171 118.253 85.519C117.449 85.867 116.507 86.041 115.427 86.041C114.191 86.041 113.165 85.771 112.349 85.231C111.545 84.679 110.945 83.989 110.549 83.161C110.153 82.321 109.955 81.469 109.955 80.605ZM126.281 82.909C126.185 83.413 125.963 83.953 125.615 84.529C125.267 85.105 124.919 85.531 124.571 85.807C123.515 85.783 122.639 85.543 121.943 85.087C121.259 84.631 120.731 84.073 120.359 83.413C119.999 82.741 119.765 82.087 119.657 81.451V73.747C119.657 73.003 119.465 72.439 119.081 72.055C118.709 71.659 118.115 71.461 117.299 71.461C116.531 71.461 115.691 71.587 114.779 71.839C113.867 72.079 112.937 72.337 111.989 72.613C111.593 72.157 111.281 71.569 111.053 70.849C110.837 70.117 110.699 69.403 110.639 68.707C111.455 68.371 112.355 68.089 113.339 67.861C114.323 67.621 115.301 67.441 116.273 67.321C117.245 67.189 118.115 67.123 118.883 67.123C119.939 67.123 120.953 67.321 121.925 67.717C122.897 68.101 123.695 68.743 124.319 69.643C124.955 70.531 125.273 71.737 125.273 73.261V80.587C125.273 81.103 125.357 81.559 125.525 81.955C125.693 82.351 125.945 82.669 126.281 82.909ZM128.034 84.277C128.058 83.677 128.22 83.005 128.52 82.261C128.832 81.517 129.198 80.929 129.618 80.497C130.398 80.905 131.208 81.259 132.048 81.559C132.9 81.847 133.746 81.991 134.586 81.991C135.282 81.991 135.804 81.871 136.152 81.631C136.512 81.391 136.692 81.091 136.692 80.731C136.692 80.383 136.56 80.077 136.296 79.813C136.044 79.537 135.63 79.297 135.054 79.093L133.056 78.373C132.216 78.061 131.454 77.671 130.77 77.203C130.086 76.723 129.546 76.141 129.15 75.457C128.754 74.761 128.556 73.933 128.556 72.973C128.556 71.749 128.844 70.693 129.42 69.805C129.996 68.917 130.806 68.233 131.85 67.753C132.894 67.261 134.118 67.015 135.522 67.015C136.662 67.015 137.856 67.171 139.104 67.4829C140.352 67.795 141.366 68.143 142.146 68.527C142.17 68.959 142.116 69.439 141.984 69.967C141.852 70.495 141.66 70.981 141.408 71.425C141.168 71.869 140.898 72.205 140.598 72.433C139.854 72.097 139.044 71.791 138.168 71.515C137.292 71.227 136.428 71.083 135.576 71.083C135.096 71.083 134.73 71.197 134.478 71.425C134.226 71.653 134.1 71.923 134.1 72.235C134.1 72.547 134.208 72.811 134.424 73.027C134.64 73.243 134.988 73.435 135.468 73.603L137.7 74.395C139.068 74.875 140.208 75.577 141.12 76.501C142.032 77.425 142.488 78.655 142.488 80.191C142.488 81.979 141.798 83.401 140.418 84.457C139.05 85.513 137.148 86.041 134.712 86.041C133.428 86.041 132.204 85.867 131.04 85.519C129.888 85.171 128.886 84.757 128.034 84.277ZM146.191 65.521C146.191 64.261 146.419 63.3849 146.875 62.8929C147.343 62.389 148.129 62.137 149.233 62.137H151.429L151.681 62.3889V79.723C151.681 80.263 151.801 80.683 152.041 80.983C152.293 81.271 152.707 81.415 153.283 81.415H155.299C155.431 81.811 155.533 82.249 155.605 82.729C155.689 83.197 155.731 83.647 155.731 84.079C155.731 84.283 155.725 84.499 155.713 84.727C155.701 84.955 155.665 85.165 155.605 85.357C154.945 85.441 154.183 85.519 153.319 85.591C152.455 85.663 151.663 85.699 150.943 85.699C149.311 85.699 148.111 85.297 147.343 84.493C146.575 83.677 146.191 82.411 146.191 80.695V65.521ZM155.947 67.519C156.115 68.155 156.199 68.809 156.199 69.481C156.199 69.817 156.181 70.159 156.145 70.507C156.109 70.843 156.043 71.179 155.947 71.515L149.233 71.407L143.365 71.515C143.209 70.879 143.131 70.201 143.131 69.481C143.131 68.833 143.209 68.179 143.365 67.519L149.395 67.609L155.947 67.519Z" fill="#381805"/>
</svg>
