<svg width="126" height="24" viewBox="0 0 126 24" fill="none" xmlns="http://www.w3.org/2000/svg">
<path fill-rule="evenodd" clip-rule="evenodd" d="M4.44721 2.7119C2.87808 3.56944 2.20314 4.63154 2.08514 5.52812C2.04089 5.86435 2.16517 6.2635 2.42532 6.70343C2.68037 7.13474 3.01664 7.52417 3.28494 7.82971C3.50209 8.07702 3.48623 8.4514 3.24894 8.67945C1.66106 10.2055 1.23077 12.3552 1.23077 16.135C1.23077 17.9961 1.43191 19.7238 1.84177 20.9697C2.04708 21.5938 2.29198 22.057 2.55661 22.3566C2.8113 22.6449 3.06329 22.762 3.32559 22.7684C3.70846 22.7779 4.13244 22.7025 4.65635 22.5623C4.9697 22.4784 5.28569 22.3813 5.6356 22.2738C5.89049 22.1954 6.16337 22.1116 6.46634 22.0232C7.86508 21.6155 9.63483 21.1996 12.0259 21.2116C14.3895 21.2235 16.2094 21.515 17.6233 21.8114C18.0751 21.9061 18.496 22.0038 18.871 22.0908C19.0722 22.1375 19.2602 22.1811 19.4326 22.2196C19.9462 22.3341 20.3344 22.4057 20.6478 22.4204C21.2188 22.4472 21.6203 22.264 21.9086 21.8952C22.2216 21.4949 22.4569 20.8032 22.4898 19.7174C22.5243 18.5784 22.5469 16.2482 22.345 14.0297C22.2439 12.9188 22.0882 11.8569 21.8572 10.9942C21.6172 10.0978 21.3277 9.54413 21.046 9.30901C20.8809 9.17122 20.7997 8.95726 20.8318 8.74463C20.864 8.53201 21.0047 8.35158 21.2032 8.26871C21.9425 7.95992 22.2257 7.5827 22.211 7.11673C22.1729 5.90486 21.3245 4.44412 19.5666 3.26033C17.8245 2.08712 15.2419 1.23077 11.9067 1.23077C8.43724 1.23077 6.01544 1.85485 4.44721 2.7119ZM3.85698 1.63189C5.66122 0.645859 8.30437 0 11.9067 0C15.4483 0 18.279 0.909348 20.2541 2.23947C22.2136 3.55902 23.3864 5.33927 23.4412 7.07799C23.4695 7.97769 23.006 8.60225 22.3873 9.02466C22.6765 9.49619 22.8861 10.0782 23.0461 10.6758C23.3029 11.6349 23.4666 12.7749 23.5707 13.9181C23.7791 16.2076 23.7552 18.5937 23.72 19.7547C23.6832 20.969 23.4189 21.9617 22.8781 22.6533C22.3127 23.3765 21.506 23.6928 20.5901 23.6499C20.1601 23.6297 19.68 23.5358 19.1647 23.4209C18.972 23.3779 18.775 23.3321 18.5695 23.2844C18.2045 23.1996 17.8128 23.1086 17.3708 23.016C16.0142 22.7316 14.2794 22.4538 12.0197 22.4424C9.7874 22.4312 8.14191 22.8168 6.81077 23.2048C6.54974 23.2809 6.28903 23.3609 6.03497 23.4388C5.66025 23.5536 5.30002 23.6641 4.97462 23.7512C4.41093 23.9021 3.8533 24.0126 3.29521 23.9988C2.61659 23.9821 2.06124 23.6548 1.63419 23.1714C1.21708 22.6992 0.90585 22.0632 0.672636 21.3543C0.205448 19.9342 0 18.0607 0 16.135C0 12.6116 0.35023 10.0868 1.99375 8.21283C1.78647 7.95934 1.56013 7.65833 1.36592 7.3299C1.05041 6.79635 0.767784 6.10545 0.864892 5.36753C1.04862 3.97155 2.05365 2.61742 3.85698 1.63189Z" fill="#381805"/>
<path d="M2.08514 5.52812C2.20314 4.63154 2.87808 3.56944 4.44721 2.7119C6.01544 1.85485 8.43724 1.23077 11.9067 1.23077C15.2419 1.23077 17.8245 2.08712 19.5666 3.26033C21.3245 4.44412 22.1729 5.90486 22.211 7.11673C22.2257 7.5827 21.9425 7.95992 21.2032 8.26871C21.0047 8.35158 20.864 8.53201 20.8318 8.74463C20.7997 8.95726 20.8809 9.17122 21.046 9.30901C21.3277 9.54413 21.6172 10.0978 21.8572 10.9942C22.0882 11.8569 22.2439 12.9188 22.345 14.0297C22.5469 16.2482 22.5243 18.5784 22.4898 19.7174C22.4569 20.8032 22.2216 21.4949 21.9086 21.8952C21.6203 22.264 21.2188 22.4472 20.6478 22.4204C20.3344 22.4057 19.9462 22.3341 19.4326 22.2196C19.2602 22.1811 19.0722 22.1375 18.871 22.0908C18.496 22.0038 18.0751 21.9061 17.6233 21.8114C16.2094 21.515 14.3895 21.2235 12.0259 21.2116C9.63483 21.1996 7.86508 21.6155 6.46634 22.0232C6.16337 22.1116 5.89049 22.1954 5.6356 22.2738C5.28569 22.3813 4.9697 22.4784 4.65635 22.5623C4.13244 22.7025 3.70846 22.7779 3.32559 22.7684C3.06329 22.762 2.8113 22.6449 2.55661 22.3566C2.29198 22.057 2.04708 21.5938 1.84177 20.9697C1.43191 19.7238 1.23077 17.9961 1.23077 16.135C1.23077 12.3552 1.66106 10.2055 3.24894 8.67945C3.48623 8.4514 3.50209 8.07702 3.28494 7.82971C3.01664 7.52417 2.68037 7.13474 2.42532 6.70343C2.16517 6.2635 2.04089 5.86435 2.08514 5.52812Z" fill="#BA814A"/>
<path d="M11.8715 3.07693C16.853 3.07693 19.7141 5.74934 19.7814 7.98221C19.8006 8.62101 19.3833 9.03408 18.7775 9.29837C20.0507 10.4084 20.0338 15.8061 19.9833 17.5466C19.9328 19.2872 19.2596 20.096 18.1826 20.0432C17.1055 19.9905 15.3047 19.1466 11.9556 19.129C8.60657 19.1114 7.00776 20.3421 5.64453 20.307C4.28135 20.2718 3.69231 17.6873 3.69231 14.8215C3.69231 11.9557 3.99526 10.1448 5.29112 8.84371C4.9045 8.38374 4.21261 7.54679 4.31501 6.73391C4.53357 4.99901 6.74889 3.07693 11.8715 3.07693Z" fill="#D7AA6F" stroke="#B46D2B" stroke-linecap="round" stroke-linejoin="round"/>
<path d="M6.85172 13.4111C7.15941 12.8982 7.05685 13.3085 7.26198 13.0008C7.46711 12.6931 8.08249 13.3682 8.08249 13.8213C8.08249 14.0479 8.18506 14.2316 7.67223 14.2316C7.15941 14.2316 6.54403 13.9239 6.85172 13.4111Z" fill="#E2C59B"/>
<path d="M10.5958 16.3302C10.4508 15.75 10.6684 16.1127 10.5958 15.75C10.5233 15.3874 11.4358 15.4296 11.7562 15.75C11.9164 15.9103 12.1188 15.9676 11.7562 16.3302C11.3936 16.6929 10.7409 16.9104 10.5958 16.3302Z" fill="#E2C59B"/>
<path d="M13.7491 7.53567C14.089 7.1958 14.4992 7.53567 14.9799 7.53567C15.4605 7.53567 15.8708 7.1958 16.2106 7.53567C16.5505 7.87553 16.826 8.45874 16.2106 8.76644C15.5953 9.07413 14.179 9.62624 13.7491 8.76644C13.5341 8.33653 13.4092 7.87553 13.7491 7.53567Z" fill="#E2C59B"/>
<path d="M118.887 6.77048C118.887 5.9951 119.027 5.45602 119.308 5.15325C119.596 4.8431 120.079 4.68802 120.759 4.68802H122.11L122.265 4.8431V15.5102C122.265 15.8425 122.339 16.1009 122.487 16.2856C122.642 16.4628 122.897 16.5514 123.251 16.5514H124.492C124.573 16.7951 124.636 17.0646 124.68 17.36C124.732 17.648 124.758 17.9249 124.758 18.1908C124.758 18.3163 124.754 18.4493 124.747 18.5896C124.739 18.7299 124.717 18.8591 124.68 18.9773C124.274 19.029 123.805 19.0769 123.273 19.1213C122.742 19.1656 122.254 19.1877 121.811 19.1877C120.807 19.1877 120.068 18.9403 119.596 18.4456C119.123 17.9434 118.887 17.1643 118.887 16.1083V6.77048ZM124.891 8.00002C124.994 8.39141 125.046 8.79387 125.046 9.20741C125.046 9.41417 125.035 9.62464 125.012 9.83879C124.99 10.0456 124.95 10.2523 124.891 10.4591L120.759 10.3926L117.148 10.4591C117.052 10.0677 117.004 9.65048 117.004 9.20741C117.004 8.80864 117.052 8.40617 117.148 8.00002L120.859 8.0554L124.891 8.00002Z" fill="#381805"/>
<path d="M107.713 18.3126C107.728 17.9434 107.828 17.5299 108.012 17.072C108.204 16.6142 108.43 16.2523 108.688 15.9865C109.168 16.2375 109.667 16.4554 110.183 16.64C110.708 16.8172 111.228 16.9059 111.745 16.9059C112.174 16.9059 112.495 16.832 112.709 16.6843C112.931 16.5366 113.041 16.352 113.041 16.1305C113.041 15.9163 112.96 15.728 112.798 15.5655C112.643 15.3957 112.388 15.248 112.033 15.1225L110.804 14.6794C110.287 14.4874 109.818 14.2474 109.397 13.9594C108.976 13.664 108.644 13.3059 108.4 12.8849C108.156 12.4566 108.035 11.9471 108.035 11.3563C108.035 10.6031 108.212 9.95324 108.566 9.40677C108.921 8.86031 109.419 8.43939 110.062 8.144C110.704 7.84123 111.457 7.68985 112.321 7.68985C113.023 7.68985 113.758 7.78585 114.526 7.97785C115.294 8.16985 115.918 8.384 116.398 8.62031C116.412 8.88616 116.379 9.18154 116.298 9.50647C116.217 9.83139 116.099 10.1305 115.943 10.4037C115.796 10.6769 115.63 10.8837 115.445 11.024C114.987 10.8172 114.489 10.6289 113.95 10.4591C113.411 10.2819 112.879 10.1932 112.355 10.1932C112.059 10.1932 111.834 10.2634 111.679 10.4037C111.524 10.544 111.446 10.7102 111.446 10.9022C111.446 11.0942 111.513 11.2566 111.646 11.3895C111.779 11.5225 111.993 11.6406 112.288 11.744L113.662 12.2314C114.503 12.5268 115.205 12.9588 115.766 13.5274C116.327 14.096 116.608 14.8529 116.608 15.7982C116.608 16.8985 116.183 17.7735 115.334 18.4234C114.492 19.0732 113.322 19.3982 111.823 19.3982C111.033 19.3982 110.279 19.2911 109.563 19.0769C108.854 18.8628 108.238 18.608 107.713 18.3126Z" fill="#381805"/>
<path d="M96.5877 16.0529C96.5877 15.1594 96.7945 14.432 97.208 13.8708C97.6216 13.3022 98.1607 12.8812 98.8253 12.608C99.4973 12.3348 100.214 12.1982 100.974 12.1982C101.307 12.1982 101.724 12.2056 102.226 12.2203C102.735 12.2351 103.193 12.2831 103.599 12.3643V14.5576C103.282 14.4837 102.898 14.4431 102.447 14.4357C102.004 14.4209 101.635 14.4136 101.34 14.4136C100.845 14.4136 100.491 14.5465 100.276 14.8123C100.062 15.0708 99.9551 15.4068 99.9551 15.8203C99.9551 16.1157 100.044 16.3631 100.221 16.5625C100.406 16.7545 100.657 16.8505 100.974 16.8505C101.417 16.8505 101.868 16.6917 102.326 16.3742C102.783 16.0566 103.171 15.6209 103.489 15.0671L103.976 17.2603C103.688 17.6 103.359 17.936 102.99 18.2683C102.621 18.5932 102.189 18.8628 101.694 19.0769C101.199 19.2911 100.62 19.3982 99.9551 19.3982C99.1945 19.3982 98.5631 19.232 98.061 18.8997C97.5662 18.56 97.197 18.1354 96.9533 17.6259C96.7096 17.1089 96.5877 16.5846 96.5877 16.0529ZM106.635 17.4708C106.575 17.7809 106.439 18.1132 106.225 18.4677C106.011 18.8222 105.796 19.0843 105.582 19.2542C104.932 19.2394 104.393 19.0917 103.965 18.8111C103.544 18.5305 103.219 18.1871 102.99 17.7809C102.769 17.3674 102.625 16.9649 102.558 16.5736V11.8326C102.558 11.3748 102.44 11.0277 102.204 10.7914C101.975 10.5477 101.609 10.4259 101.107 10.4259C100.635 10.4259 100.118 10.5034 99.5564 10.6585C98.9951 10.8062 98.4228 10.9649 97.8394 11.1348C97.5957 10.8542 97.4037 10.4923 97.2634 10.0492C97.1305 9.59878 97.0456 9.1594 97.0087 8.73109C97.5108 8.52432 98.0647 8.35078 98.6702 8.21047C99.2757 8.06278 99.8776 7.95201 100.476 7.87816C101.074 7.79693 101.609 7.75632 102.082 7.75632C102.732 7.75632 103.356 7.87816 103.954 8.12186C104.552 8.35816 105.043 8.75324 105.427 9.30709C105.819 9.85355 106.014 10.5957 106.014 11.5335V16.0419C106.014 16.3594 106.066 16.64 106.169 16.8837C106.273 17.1274 106.428 17.3231 106.635 17.4708Z" fill="#381805"/>
<path d="M95.2483 13.5495C95.2483 14.7311 95.0526 15.7612 94.6612 16.64C94.2698 17.5188 93.6938 18.1982 92.9332 18.6782C92.18 19.1582 91.2458 19.3982 90.1308 19.3982C89.0083 19.3982 88.0668 19.1582 87.3061 18.6782C86.5455 18.1908 85.9732 17.5077 85.5892 16.6289C85.2052 15.7502 85.0132 14.7237 85.0132 13.5495C85.0132 12.3606 85.2052 11.3305 85.5892 10.4591C85.9806 9.58031 86.5566 8.90093 87.3172 8.42093C88.0778 7.93354 89.0157 7.68985 90.1308 7.68985C91.2532 7.68985 92.1948 7.93354 92.9554 8.42093C93.716 8.90831 94.2883 9.59139 94.6723 10.4702C95.0563 11.3415 95.2483 12.368 95.2483 13.5495ZM88.5689 13.5495C88.5689 14.1551 88.6021 14.7052 88.6686 15.2C88.7424 15.6948 88.8901 16.0899 89.1117 16.3852C89.3406 16.6732 89.6803 16.8172 90.1308 16.8172C90.5886 16.8172 90.9283 16.6732 91.1498 16.3852C91.3714 16.0899 91.5154 15.6948 91.5818 15.2C91.6557 14.7052 91.6926 14.1551 91.6926 13.5495C91.6926 12.9366 91.6557 12.3828 91.5818 11.888C91.5154 11.3932 91.3714 11.0019 91.1498 10.7139C90.9283 10.4185 90.5886 10.2708 90.1308 10.2708C89.6803 10.2708 89.3406 10.4185 89.1117 10.7139C88.8901 11.0019 88.7424 11.3932 88.6686 11.888C88.6021 12.3828 88.5689 12.9366 88.5689 13.5495Z" fill="#381805"/>
<path d="M77.9974 6.77048C77.9974 5.9951 78.1377 5.45602 78.4183 5.15325C78.7063 4.8431 79.19 4.68802 79.8694 4.68802H81.2208L81.3758 4.8431V15.5102C81.3758 15.8425 81.4497 16.1009 81.5974 16.2856C81.7524 16.4628 82.0072 16.5514 82.3617 16.5514H83.6023C83.6835 16.7951 83.7463 17.0646 83.7906 17.36C83.8423 17.648 83.8681 17.9249 83.8681 18.1908C83.8681 18.3163 83.8644 18.4493 83.8571 18.5896C83.8497 18.7299 83.8275 18.8591 83.7906 18.9773C83.3844 19.029 82.9155 19.0769 82.3838 19.1213C81.8521 19.1656 81.3648 19.1877 80.9217 19.1877C79.9174 19.1877 79.1789 18.9403 78.7063 18.4456C78.2337 17.9434 77.9974 17.1643 77.9974 16.1083V6.77048ZM84.0011 8.00002C84.1044 8.39141 84.1561 8.79387 84.1561 9.20741C84.1561 9.41417 84.1451 9.62464 84.1229 9.83879C84.1008 10.0456 84.0601 10.2523 84.0011 10.4591L79.8694 10.3926L76.2583 10.4591C76.1623 10.0677 76.1143 9.65048 76.1143 9.20741C76.1143 8.80864 76.1623 8.40617 76.2583 8.00002L79.9691 8.0554L84.0011 8.00002Z" fill="#381805"/>
<path d="M75.5608 13.5495C75.5608 14.7311 75.3651 15.7612 74.9737 16.64C74.5823 17.5188 74.0063 18.1982 73.2457 18.6782C72.4925 19.1582 71.5583 19.3982 70.4433 19.3982C69.3208 19.3982 68.3793 19.1582 67.6186 18.6782C66.858 18.1908 66.2857 17.5077 65.9017 16.6289C65.5177 15.7502 65.3257 14.7237 65.3257 13.5495C65.3257 12.3606 65.5177 11.3305 65.9017 10.4591C66.2931 9.58031 66.8691 8.90093 67.6297 8.42093C68.3903 7.93354 69.3282 7.68985 70.4433 7.68985C71.5657 7.68985 72.5073 7.93354 73.2679 8.42093C74.0285 8.90831 74.6008 9.59139 74.9848 10.4702C75.3688 11.3415 75.5608 12.368 75.5608 13.5495ZM68.8814 13.5495C68.8814 14.1551 68.9146 14.7052 68.9811 15.2C69.0549 15.6948 69.2026 16.0899 69.4242 16.3852C69.6531 16.6732 69.9928 16.8172 70.4433 16.8172C70.9011 16.8172 71.2408 16.6732 71.4623 16.3852C71.6839 16.0899 71.8279 15.6948 71.8943 15.2C71.9682 14.7052 72.0051 14.1551 72.0051 13.5495C72.0051 12.9366 71.9682 12.3828 71.8943 11.888C71.8279 11.3932 71.6839 11.0019 71.4623 10.7139C71.2408 10.4185 70.9011 10.2708 70.4433 10.2708C69.9928 10.2708 69.6531 10.4185 69.4242 10.7139C69.2026 11.0019 69.0549 11.3932 68.9811 11.888C68.9146 12.3828 68.8814 12.9366 68.8814 13.5495Z" fill="#381805"/>
<path d="M55.326 7.86709C55.9906 7.86709 56.4891 8.09601 56.8214 8.55386C57.1611 9.00432 57.3309 9.61355 57.3309 10.3816V19.0769C57.0872 19.1213 56.8103 19.1508 56.5002 19.1656C56.1974 19.1877 55.8983 19.1988 55.6029 19.1988C55.3149 19.1988 55.0158 19.1877 54.7057 19.1656C54.4029 19.1508 54.1223 19.1213 53.8638 19.0769V8.02217L54.0189 7.86709H55.326ZM63.39 16.3077C63.39 16.736 63.4306 17.1422 63.5119 17.5262C63.5931 17.9028 63.7371 18.2314 63.9439 18.512C63.6928 18.7188 63.3789 18.896 63.0023 19.0437C62.6257 19.184 62.2195 19.2542 61.7839 19.2542C61.0897 19.2542 60.606 19.0696 60.3328 18.7003C60.0595 18.3311 59.9229 17.8031 59.9229 17.1163V12.3976C59.9229 11.8954 59.8565 11.5262 59.7235 11.2899C59.598 11.0462 59.3506 10.9243 58.9814 10.9243C58.7525 10.9243 58.4866 10.9871 58.1838 11.1126C57.8885 11.2382 57.5894 11.4412 57.2866 11.7219C56.9912 11.9951 56.7291 12.3643 56.5002 12.8296V9.79448C57.0245 9.29232 57.5894 8.83817 58.1949 8.43202C58.8078 8.02586 59.5057 7.82278 60.2885 7.82278C60.9679 7.82278 61.5365 7.99263 61.9943 8.33232C62.4522 8.66463 62.7992 9.12617 63.0355 9.71694C63.2719 10.3077 63.39 10.9908 63.39 11.7662V16.3077Z" fill="#381805"/>
<path d="M41.8521 16.0529C41.8521 15.1594 42.0589 14.432 42.4724 13.8708C42.886 13.3022 43.4251 12.8812 44.0897 12.608C44.7617 12.3348 45.478 12.1982 46.2386 12.1982C46.5709 12.1982 46.9881 12.2056 47.4903 12.2203C47.9998 12.2351 48.4577 12.2831 48.8638 12.3643V14.5576C48.5463 14.4837 48.1623 14.4431 47.7118 14.4357C47.2688 14.4209 46.8995 14.4136 46.6041 14.4136C46.1094 14.4136 45.7549 14.5465 45.5408 14.8123C45.3266 15.0708 45.2195 15.4068 45.2195 15.8203C45.2195 16.1157 45.3081 16.3631 45.4854 16.5625C45.67 16.7545 45.9211 16.8505 46.2386 16.8505C46.6817 16.8505 47.1321 16.6917 47.59 16.3742C48.0478 16.0566 48.4355 15.6209 48.7531 15.0671L49.2404 17.2603C48.9524 17.6 48.6238 17.936 48.2546 18.2683C47.8854 18.5932 47.4534 18.8628 46.9586 19.0769C46.4638 19.2911 45.8841 19.3982 45.2195 19.3982C44.4589 19.3982 43.8275 19.232 43.3254 18.8997C42.8306 18.56 42.4614 18.1354 42.2177 17.6259C41.974 17.1089 41.8521 16.5846 41.8521 16.0529ZM51.8989 17.4708C51.8398 17.7809 51.7032 18.1132 51.4891 18.4677C51.2749 18.8222 51.0608 19.0843 50.8466 19.2542C50.1968 19.2394 49.6577 19.0917 49.2294 18.8111C48.8084 18.5305 48.4835 18.1871 48.2546 17.7809C48.0331 17.3674 47.8891 16.9649 47.8226 16.5736V11.8326C47.8226 11.3748 47.7044 11.0277 47.4681 10.7914C47.2392 10.5477 46.8737 10.4259 46.3715 10.4259C45.8989 10.4259 45.382 10.5034 44.8208 10.6585C44.2595 10.8062 43.6872 10.9649 43.1038 11.1348C42.8601 10.8542 42.6681 10.4923 42.5278 10.0492C42.3949 9.59878 42.31 9.1594 42.2731 8.73109C42.7752 8.52432 43.3291 8.35078 43.9346 8.21047C44.5401 8.06278 45.142 7.95201 45.7401 7.87816C46.3383 7.79693 46.8737 7.75632 47.3463 7.75632C47.9961 7.75632 48.6201 7.87816 49.2183 8.12186C49.8164 8.35816 50.3075 8.75324 50.6915 9.30709C51.0829 9.85355 51.2786 10.5957 51.2786 11.5335V16.0419C51.2786 16.3594 51.3303 16.64 51.4337 16.8837C51.5371 17.1274 51.6921 17.3231 51.8989 17.4708Z" fill="#381805"/>
<path d="M31.8524 7.86709C32.5171 7.86709 33.0155 8.09601 33.3478 8.55386C33.6875 9.00432 33.8574 9.61355 33.8574 10.3816V19.0769C33.6137 19.1213 33.3367 19.1508 33.0266 19.1656C32.7238 19.1877 32.4247 19.1988 32.1294 19.1988C31.8414 19.1988 31.5423 19.1877 31.2321 19.1656C30.9294 19.1508 30.6487 19.1213 30.3903 19.0769V8.02217L30.5454 7.86709H31.8524ZM39.9164 16.3077C39.9164 16.736 39.9571 17.1422 40.0383 17.5262C40.1195 17.9028 40.2635 18.2314 40.4703 18.512C40.2192 18.7188 39.9054 18.896 39.5287 19.0437C39.1521 19.184 38.746 19.2542 38.3103 19.2542C37.6161 19.2542 37.1324 19.0696 36.8592 18.7003C36.586 18.3311 36.4494 17.8031 36.4494 17.1163V12.3976C36.4494 11.8954 36.3829 11.5262 36.25 11.2899C36.1244 11.0462 35.8771 10.9243 35.5078 10.9243C35.2789 10.9243 35.0131 10.9871 34.7103 11.1126C34.4149 11.2382 34.1158 11.4412 33.8131 11.7219C33.5177 11.9951 33.2555 12.3643 33.0266 12.8296V9.79448C33.5509 9.29232 34.1158 8.83817 34.7214 8.43202C35.3343 8.02586 36.0321 7.82278 36.8149 7.82278C37.4943 7.82278 38.0629 7.99263 38.5207 8.33232C38.9786 8.66463 39.3257 9.12617 39.562 9.71694C39.7983 10.3077 39.9164 10.9908 39.9164 11.7662V16.3077Z" fill="#381805"/>
</svg>