<svg width="150" height="140" viewBox="0 0 150 140" fill="none" xmlns="http://www.w3.org/2000/svg">
<path d="M25.3536 99.3536C25.1583 99.5488 24.8417 99.5488 24.6464 99.3536L21.4645 96.1716C21.2692 95.9763 21.2692 95.6597 21.4645 95.4645C21.6597 95.2692 21.9763 95.2692 22.1716 95.4645L25 98.2929L27.8284 95.4645C28.0237 95.2692 28.3403 95.2692 28.5355 95.4645C28.7308 95.6597 28.7308 95.9763 28.5355 96.1716L25.3536 99.3536ZM125.354 99.3536C125.158 99.5488 124.842 99.5488 124.646 99.3536L121.464 96.1716C121.269 95.9763 121.269 95.6597 121.464 95.4645C121.66 95.2692 121.976 95.2692 122.172 95.4645L125 98.2929L127.828 95.4645C128.024 95.2692 128.34 95.2692 128.536 95.4645C128.731 95.6597 128.731 95.9763 128.536 96.1716L125.354 99.3536ZM74.875 40V54.75H73.875V40H74.875ZM31 54.25H74.375V55.25H31V54.25ZM74.375 54.25L119 54.25V55.25L74.375 55.25V54.25ZM25.5 60.75L25.5 99H24.5L24.5 60.75H25.5ZM125.5 60.75V99H124.5V60.75H125.5ZM119 54.25C122.59 54.25 125.5 57.1601 125.5 60.75H124.5C124.5 57.7124 122.038 55.25 119 55.25V54.25ZM31 55.25C27.9624 55.25 25.5 57.7124 25.5 60.75H24.5C24.5 57.1601 27.4101 54.25 31 54.25V55.25Z" fill="#BA814A"/>
<rect x="55.5" y="0.5" width="39" height="39" rx="5.5" fill="#FEFAE0" stroke="#EAE3CA"/>
<path d="M66.4904 22.9301C67.0699 24.6132 68.1355 26.0866 69.5524 27.1641C70.9693 28.2415 72.6739 28.8746 74.4506 28.9832C76.2273 29.0919 77.9963 28.6713 79.534 27.7746C81.0716 26.8778 82.3089 25.5453 83.0892 23.9454C83.8695 22.3455 84.1579 20.5501 83.9178 18.7864C83.6778 17.0226 82.9201 15.3696 81.7406 14.0365C80.5611 12.7033 79.0128 11.7498 77.2914 11.2966C75.5701 10.8434 73.753 10.9108 72.0699 11.4904" stroke="#EDE7CD" stroke-width="2" stroke-linecap="round" stroke-linejoin="round"/>
<path d="M75 11C73.22 11 71.4799 11.5278 69.9999 12.5168C68.5198 13.5057 67.3663 14.9113 66.6851 16.5558C66.0039 18.2004 65.8257 20.01 66.1729 21.7558C66.5202 23.5016 67.3774 25.1053 68.636 26.364C69.8947 27.6226 71.4984 28.4798 73.2442 28.8271C74.99 29.1743 76.7996 28.9961 78.4442 28.3149C80.0887 27.6337 81.4943 26.4802 82.4832 25.0001C83.4722 23.5201 84 21.78 84 20" stroke="#BA814A" stroke-width="2" stroke-linecap="round" stroke-linejoin="round"/>
<rect x="105.5" y="100.5" width="39" height="39" rx="5.5" fill="#FEFAE0" stroke="#EAE3CA"/>
<path d="M122 120L124 122L128 118M116 120C116 121.182 116.233 122.352 116.685 123.444C117.137 124.536 117.8 125.528 118.636 126.364C119.472 127.2 120.464 127.863 121.556 128.315C122.648 128.767 123.818 129 125 129C126.182 129 127.352 128.767 128.444 128.315C129.536 127.863 130.528 127.2 131.364 126.364C132.2 125.528 132.863 124.536 133.315 123.444C133.767 122.352 134 121.182 134 120C134 118.818 133.767 117.648 133.315 116.556C132.863 115.464 132.2 114.472 131.364 113.636C130.528 112.8 129.536 112.137 128.444 111.685C127.352 111.233 126.182 111 125 111C123.818 111 122.648 111.233 121.556 111.685C120.464 112.137 119.472 112.8 118.636 113.636C117.8 114.472 117.137 115.464 116.685 116.556C116.233 117.648 116 118.818 116 120Z" stroke="#2EC226" stroke-linecap="round" stroke-linejoin="round"/>
<rect x="5.5" y="100.5" width="39" height="39" rx="5.5" fill="#FEFAE0" stroke="#EAE3CA"/>
<path d="M22 116L28 124M28 116L22 124M25 129C27.3869 129 29.6761 128.052 31.364 126.364C33.0518 124.676 34 122.387 34 120C34 117.613 33.0518 115.324 31.364 113.636C29.6761 111.948 27.3869 111 25 111C22.6131 111 20.3239 111.948 18.636 113.636C16.9482 115.324 16 117.613 16 120C16 122.387 16.9482 124.676 18.636 126.364C20.3239 128.052 22.6131 129 25 129Z" stroke="#FC3B3B" stroke-linecap="round" stroke-linejoin="round"/>
<rect x="0.5" y="66.5" width="49" height="19" rx="5.5" fill="#FFEAC4" stroke="#BA814A"/>
<path d="M10.7517 79H9.91172V72.02H12.4517C13.0984 72.02 13.5917 72.1967 13.9317 72.55C14.2717 72.9033 14.4417 73.3967 14.4417 74.03C14.4417 74.5967 14.2951 75.05 14.0017 75.39C13.7084 75.73 13.2817 75.9267 12.7217 75.98L14.5017 79H13.5617L11.8617 76.02H10.7517V79ZM12.4317 75.31C12.7851 75.31 13.0584 75.2233 13.2517 75.05C13.4517 74.87 13.5517 74.6167 13.5517 74.29V73.77C13.5517 73.4433 13.4517 73.1933 13.2517 73.02C13.0584 72.84 12.7851 72.75 12.4317 72.75H10.7517V75.31H12.4317ZM17.2978 79.12C16.9245 79.12 16.5878 79.0567 16.2878 78.93C15.9945 78.8033 15.7411 78.6233 15.5278 78.39C15.3211 78.15 15.1611 77.8667 15.0478 77.54C14.9345 77.2067 14.8778 76.8367 14.8778 76.43C14.8778 76.0167 14.9345 75.6433 15.0478 75.31C15.1678 74.9767 15.3311 74.6933 15.5378 74.46C15.7445 74.22 15.9911 74.0367 16.2778 73.91C16.5711 73.7833 16.8945 73.72 17.2478 73.72C17.5945 73.72 17.9078 73.7833 18.1878 73.91C18.4745 74.0367 18.7178 74.2133 18.9178 74.44C19.1178 74.66 19.2711 74.9233 19.3778 75.23C19.4845 75.5367 19.5378 75.8733 19.5378 76.24V76.62H15.7178V76.86C15.7178 77.0867 15.7545 77.2967 15.8278 77.49C15.9011 77.6833 16.0045 77.85 16.1378 77.99C16.2778 78.13 16.4445 78.24 16.6378 78.32C16.8378 78.3933 17.0578 78.43 17.2978 78.43C17.6445 78.43 17.9445 78.35 18.1978 78.19C18.4511 78.03 18.6445 77.81 18.7778 77.53L19.3678 77.93C19.2145 78.2767 18.9578 78.5633 18.5978 78.79C18.2445 79.01 17.8111 79.12 17.2978 79.12ZM17.2478 74.38C17.0278 74.38 16.8245 74.42 16.6378 74.5C16.4511 74.58 16.2878 74.69 16.1478 74.83C16.0145 74.97 15.9078 75.1367 15.8278 75.33C15.7545 75.5167 15.7178 75.7233 15.7178 75.95V76.02H18.6778V75.91C18.6778 75.6833 18.6411 75.4767 18.5678 75.29C18.5011 75.1033 18.4045 74.9433 18.2778 74.81C18.1578 74.67 18.0078 74.5633 17.8278 74.49C17.6545 74.4167 17.4611 74.38 17.2478 74.38ZM20.4239 80.32H22.9239V74.52H20.3339V73.84H23.7239V79.82C23.7239 80.1667 23.6306 80.45 23.4439 80.67C23.2639 80.89 22.9772 81 22.5839 81H20.4239V80.32ZM23.3239 72.7C23.0906 72.7 22.9272 72.6533 22.8339 72.56C22.7406 72.46 22.6939 72.3367 22.6939 72.19V72.03C22.6939 71.8833 22.7406 71.7633 22.8339 71.67C22.9272 71.57 23.0906 71.52 23.3239 71.52C23.5572 71.52 23.7206 71.57 23.8139 71.67C23.9072 71.7633 23.9539 71.8833 23.9539 72.03V72.19C23.9539 72.3367 23.9072 72.46 23.8139 72.56C23.7206 72.6533 23.5572 72.7 23.3239 72.7ZM27.69 79.12C27.3167 79.12 26.98 79.0567 26.68 78.93C26.3867 78.8033 26.1333 78.6233 25.92 78.39C25.7133 78.15 25.5533 77.8667 25.44 77.54C25.3267 77.2067 25.27 76.8367 25.27 76.43C25.27 76.0167 25.3267 75.6433 25.44 75.31C25.56 74.9767 25.7233 74.6933 25.93 74.46C26.1367 74.22 26.3833 74.0367 26.67 73.91C26.9633 73.7833 27.2867 73.72 27.64 73.72C27.9867 73.72 28.3 73.7833 28.58 73.91C28.8667 74.0367 29.11 74.2133 29.31 74.44C29.51 74.66 29.6633 74.9233 29.77 75.23C29.8767 75.5367 29.93 75.8733 29.93 76.24V76.62H26.11V76.86C26.11 77.0867 26.1467 77.2967 26.22 77.49C26.2933 77.6833 26.3967 77.85 26.53 77.99C26.67 78.13 26.8367 78.24 27.03 78.32C27.23 78.3933 27.45 78.43 27.69 78.43C28.0367 78.43 28.3367 78.35 28.59 78.19C28.8433 78.03 29.0367 77.81 29.17 77.53L29.76 77.93C29.6067 78.2767 29.35 78.5633 28.99 78.79C28.6367 79.01 28.2033 79.12 27.69 79.12ZM27.64 74.38C27.42 74.38 27.2167 74.42 27.03 74.5C26.8433 74.58 26.68 74.69 26.54 74.83C26.4067 74.97 26.3 75.1367 26.22 75.33C26.1467 75.5167 26.11 75.7233 26.11 75.95V76.02H29.07V75.91C29.07 75.6833 29.0333 75.4767 28.96 75.29C28.8933 75.1033 28.7967 74.9433 28.67 74.81C28.55 74.67 28.4 74.5633 28.22 74.49C28.0467 74.4167 27.8533 74.38 27.64 74.38ZM32.9761 79.12C32.6028 79.12 32.2694 79.0567 31.9761 78.93C31.6894 78.7967 31.4461 78.6133 31.2461 78.38C31.0461 78.1467 30.8928 77.8633 30.7861 77.53C30.6861 77.1967 30.6361 76.8267 30.6361 76.42C30.6361 76.0133 30.6894 75.6433 30.7961 75.31C30.9028 74.9767 31.0561 74.6933 31.2561 74.46C31.4561 74.22 31.6994 74.0367 31.9861 73.91C32.2728 73.7833 32.5994 73.72 32.9661 73.72C33.4661 73.72 33.8728 73.83 34.1861 74.05C34.4994 74.27 34.7294 74.5567 34.8761 74.91L34.2361 75.25C34.1428 74.9833 33.9861 74.7767 33.7661 74.63C33.5528 74.4833 33.2861 74.41 32.9661 74.41C32.7328 74.41 32.5228 74.45 32.3361 74.53C32.1561 74.6033 32.0028 74.71 31.8761 74.85C31.7494 74.99 31.6528 75.1567 31.5861 75.35C31.5261 75.5433 31.4961 75.7533 31.4961 75.98V76.86C31.4961 77.0867 31.5261 77.2967 31.5861 77.49C31.6528 77.6833 31.7494 77.85 31.8761 77.99C32.0028 78.13 32.1594 78.24 32.3461 78.32C32.5328 78.3933 32.7461 78.43 32.9861 78.43C33.3328 78.43 33.6194 78.35 33.8461 78.19C34.0728 78.03 34.2528 77.81 34.3861 77.53L34.9561 77.92C34.8028 78.2667 34.5628 78.5533 34.2361 78.78C33.9161 79.0067 33.4961 79.12 32.9761 79.12ZM38.2422 79C37.8489 79 37.5589 78.89 37.3722 78.67C37.1922 78.45 37.1022 78.1667 37.1022 77.82V74.52H35.3822V73.84H36.6622C36.8355 73.84 36.9555 73.8067 37.0222 73.74C37.0955 73.6667 37.1322 73.5433 37.1322 73.37V72.02H37.9022V73.84H40.2522V74.52H37.9022V78.32H40.2522V79H38.2422Z" fill="#381805"/>
<rect x="100.5" y="66.5" width="49" height="19" rx="5.5" fill="#FFEAC4" stroke="#BA814A"/>
<path d="M108.154 79H107.314V72.02H109.854C110.5 72.02 110.994 72.1967 111.334 72.55C111.674 72.9033 111.844 73.3967 111.844 74.03C111.844 74.5967 111.697 75.05 111.404 75.39C111.11 75.73 110.684 75.9267 110.124 75.98L111.904 79H110.964L109.264 76.02H108.154V79ZM109.834 75.31C110.187 75.31 110.46 75.2233 110.654 75.05C110.854 74.87 110.954 74.6167 110.954 74.29V73.77C110.954 73.4433 110.854 73.1933 110.654 73.02C110.46 72.84 110.187 72.75 109.834 72.75H108.154V75.31H109.834ZM114.7 79.12C114.326 79.12 113.99 79.0567 113.69 78.93C113.396 78.8033 113.143 78.6233 112.93 78.39C112.723 78.15 112.563 77.8667 112.45 77.54C112.336 77.2067 112.28 76.8367 112.28 76.43C112.28 76.0167 112.336 75.6433 112.45 75.31C112.57 74.9767 112.733 74.6933 112.94 74.46C113.146 74.22 113.393 74.0367 113.68 73.91C113.973 73.7833 114.296 73.72 114.65 73.72C114.996 73.72 115.31 73.7833 115.59 73.91C115.876 74.0367 116.12 74.2133 116.32 74.44C116.52 74.66 116.673 74.9233 116.78 75.23C116.886 75.5367 116.94 75.8733 116.94 76.24V76.62H113.12V76.86C113.12 77.0867 113.156 77.2967 113.23 77.49C113.303 77.6833 113.406 77.85 113.54 77.99C113.68 78.13 113.846 78.24 114.04 78.32C114.24 78.3933 114.46 78.43 114.7 78.43C115.046 78.43 115.346 78.35 115.6 78.19C115.853 78.03 116.046 77.81 116.18 77.53L116.77 77.93C116.616 78.2767 116.36 78.5633 116 78.79C115.646 79.01 115.213 79.12 114.7 79.12ZM114.65 74.38C114.43 74.38 114.226 74.42 114.04 74.5C113.853 74.58 113.69 74.69 113.55 74.83C113.416 74.97 113.31 75.1367 113.23 75.33C113.156 75.5167 113.12 75.7233 113.12 75.95V76.02H116.08V75.91C116.08 75.6833 116.043 75.4767 115.97 75.29C115.903 75.1033 115.806 74.9433 115.68 74.81C115.56 74.67 115.41 74.5633 115.23 74.49C115.056 74.4167 114.863 74.38 114.65 74.38ZM119.866 79.12C119.326 79.12 118.859 79.03 118.466 78.85C118.079 78.6633 117.749 78.4167 117.476 78.11L118.016 77.64C118.263 77.9 118.533 78.1 118.826 78.24C119.119 78.38 119.473 78.45 119.886 78.45C120.286 78.45 120.613 78.38 120.866 78.24C121.126 78.0933 121.256 77.8667 121.256 77.56C121.256 77.4267 121.229 77.3167 121.176 77.23C121.129 77.1367 121.063 77.0633 120.976 77.01C120.889 76.9567 120.793 76.9167 120.686 76.89C120.579 76.8567 120.466 76.83 120.346 76.81L119.536 76.69C119.356 76.6633 119.159 76.6267 118.946 76.58C118.739 76.5333 118.549 76.46 118.376 76.36C118.203 76.2533 118.056 76.1133 117.936 75.94C117.823 75.7667 117.766 75.54 117.766 75.26C117.766 75 117.816 74.7767 117.916 74.59C118.023 74.3967 118.169 74.2367 118.356 74.11C118.543 73.9767 118.763 73.88 119.016 73.82C119.269 73.7533 119.546 73.72 119.846 73.72C120.313 73.72 120.716 73.7933 121.056 73.94C121.403 74.0867 121.699 74.29 121.946 74.55L121.426 75.04C121.366 74.9667 121.289 74.8933 121.196 74.82C121.109 74.74 120.999 74.67 120.866 74.61C120.739 74.5433 120.589 74.49 120.416 74.45C120.243 74.41 120.043 74.39 119.816 74.39C119.409 74.39 119.096 74.46 118.876 74.6C118.663 74.74 118.556 74.9433 118.556 75.21C118.556 75.3433 118.579 75.4567 118.626 75.55C118.679 75.6367 118.749 75.7067 118.836 75.76C118.923 75.8133 119.019 75.8567 119.126 75.89C119.239 75.9167 119.353 75.94 119.466 75.96L120.276 76.08C120.463 76.1067 120.659 76.1433 120.866 76.19C121.073 76.2367 121.263 76.3133 121.436 76.42C121.609 76.52 121.753 76.6567 121.866 76.83C121.986 77.0033 122.046 77.23 122.046 77.51C122.046 78.0233 121.846 78.42 121.446 78.7C121.053 78.98 120.526 79.12 119.866 79.12ZM125.002 79.12C124.642 79.12 124.315 79.0567 124.022 78.93C123.735 78.8033 123.489 78.6233 123.282 78.39C123.082 78.15 122.929 77.8667 122.822 77.54C122.715 77.2067 122.662 76.8333 122.662 76.42C122.662 76.0133 122.715 75.6433 122.822 75.31C122.929 74.9767 123.082 74.6933 123.282 74.46C123.489 74.22 123.735 74.0367 124.022 73.91C124.315 73.7833 124.642 73.72 125.002 73.72C125.362 73.72 125.685 73.7833 125.972 73.91C126.265 74.0367 126.512 74.22 126.712 74.46C126.919 74.6933 127.075 74.9767 127.182 75.31C127.289 75.6433 127.342 76.0133 127.342 76.42C127.342 76.8333 127.289 77.2067 127.182 77.54C127.075 77.8667 126.919 78.15 126.712 78.39C126.512 78.6233 126.265 78.8033 125.972 78.93C125.685 79.0567 125.362 79.12 125.002 79.12ZM125.002 78.43C125.449 78.43 125.809 78.2967 126.082 78.03C126.355 77.7633 126.492 77.35 126.492 76.79V76.05C126.492 75.49 126.355 75.0767 126.082 74.81C125.809 74.5433 125.449 74.41 125.002 74.41C124.555 74.41 124.195 74.5433 123.922 74.81C123.649 75.0767 123.512 75.49 123.512 76.05V76.79C123.512 77.35 123.649 77.7633 123.922 78.03C124.195 78.2967 124.555 78.43 125.002 78.43ZM127.998 78.32H129.798V72.28H127.998V71.6H130.598V78.32H132.398V79H127.998V78.32ZM134.884 79L133.034 73.84H133.844L134.584 76L135.384 78.33H135.424L136.224 76L136.964 73.84H137.754L135.904 79H134.884ZM140.68 79.12C140.307 79.12 139.97 79.0567 139.67 78.93C139.377 78.8033 139.124 78.6233 138.91 78.39C138.704 78.15 138.544 77.8667 138.43 77.54C138.317 77.2067 138.26 76.8367 138.26 76.43C138.26 76.0167 138.317 75.6433 138.43 75.31C138.55 74.9767 138.714 74.6933 138.92 74.46C139.127 74.22 139.374 74.0367 139.66 73.91C139.954 73.7833 140.277 73.72 140.63 73.72C140.977 73.72 141.29 73.7833 141.57 73.91C141.857 74.0367 142.1 74.2133 142.3 74.44C142.5 74.66 142.654 74.9233 142.76 75.23C142.867 75.5367 142.92 75.8733 142.92 76.24V76.62H139.1V76.86C139.1 77.0867 139.137 77.2967 139.21 77.49C139.284 77.6833 139.387 77.85 139.52 77.99C139.66 78.13 139.827 78.24 140.02 78.32C140.22 78.3933 140.44 78.43 140.68 78.43C141.027 78.43 141.327 78.35 141.58 78.19C141.834 78.03 142.027 77.81 142.16 77.53L142.75 77.93C142.597 78.2767 142.34 78.5633 141.98 78.79C141.627 79.01 141.194 79.12 140.68 79.12ZM140.63 74.38C140.41 74.38 140.207 74.42 140.02 74.5C139.834 74.58 139.67 74.69 139.53 74.83C139.397 74.97 139.29 75.1367 139.21 75.33C139.137 75.5167 139.1 75.7233 139.1 75.95V76.02H142.06V75.91C142.06 75.6833 142.024 75.4767 141.95 75.29C141.884 75.1033 141.787 74.9433 141.66 74.81C141.54 74.67 141.39 74.5633 141.21 74.49C141.037 74.4167 140.844 74.38 140.63 74.38Z" fill="#381805"/>
</svg>